HIERARCHY
ROOT Hips
{
  OFFSET 52.354 54.0659 -4.06192
  CHANNELS 6 Xposition Yposition Zposition Zrotation Xrotation Yrotation
  JOINT spine
  {
    OFFSET 0 7.96568 0.458067
    CHANNELS 3 Zrotation Xrotation Yrotation
    JOINT spine1
    {
      OFFSET 0 10.2431 0
      CHANNELS 3 Zrotation Xrotation Yrotation
      JOINT spine2
      {
        OFFSET 0 9.81475 0
        CHANNELS 3 Zrotation Xrotation Yrotation
        JOINT Neck
        {
          OFFSET 0 25.1986 1.20138
          CHANNELS 3 Zrotation Xrotation Yrotation
          JOINT Head
          {
            OFFSET 0 7.61315 0
            CHANNELS 3 Zrotation Xrotation Yrotation
            End Site
            {
              OFFSET 0 18.4281 -6.07733
            }
          }
        }
        JOINT RightShoulder
        {
          OFFSET -4.1327 10.5992 -0.575451
          CHANNELS 3 Zrotation Xrotation Yrotation
          JOINT RightArm
          {
            OFFSET 0 13.9018 0
            CHANNELS 3 Zrotation Xrotation Yrotation
            JOINT RightArmRoll
            {
              OFFSET 0 7.01789 0
              CHANNELS 3 Zrotation Xrotation Yrotation
              JOINT RightForeArm
              {
                OFFSET 0 20.4406 0
                CHANNELS 3 Zrotation Xrotation Yrotation
                JOINT RightForeArmRoll
                {
                  OFFSET 0 7.87516 0
                  CHANNELS 3 Zrotation Xrotation Yrotation
                  JOINT RightHand
                  {
                    OFFSET 0 15.8037 0
                    CHANNELS 3 Zrotation Xrotation Yrotation
                    End Site
                    {
                      OFFSET 0 0 0
                    }
                  }
                }
              }
            }
          }
        }
        JOINT LeftShoulder
        {
          OFFSET 4.1327 10.5992 -0.575451
          CHANNELS 3 Zrotation Xrotation Yrotation
          JOINT LeftArm
          {
            OFFSET 0 13.9018 0
            CHANNELS 3 Zrotation Xrotation Yrotation
            JOINT LeftArmRoll
            {
              OFFSET 0 7.01788 0
              CHANNELS 3 Zrotation Xrotation Yrotation
              JOINT LeftForeArm
              {
                OFFSET 0 20.4406 0
                CHANNELS 3 Zrotation Xrotation Yrotation
                JOINT LeftForeArmRoll
                {
                  OFFSET 0 7.87515 0
                  CHANNELS 3 Zrotation Xrotation Yrotation
                  JOINT LeftHand
                  {
                    OFFSET 0 15.8037 0
                    CHANNELS 3 Zrotation Xrotation Yrotation
                    End Site
                    {
                      OFFSET 0 0 0
                    }
                  }
                }
              }
            }
          }
        }
      }
    }
  }
  JOINT RightUpLeg
  {
    OFFSET -7.06048 -1.2947 -1.0861
    CHANNELS 3 Zrotation Xrotation Yrotation
    JOINT RightUpLegRoll
    {
      OFFSET 0 18.5308 0
      CHANNELS 3 Zrotation Xrotation Yrotation
      JOINT RightLeg
      {
        OFFSET 0 -22.9476 0
        CHANNELS 3 Zrotation Xrotation Yrotation
        JOINT RightLegRoll
        {
          OFFSET 0 23.0226 0
          CHANNELS 3 Zrotation Xrotation Yrotation
          JOINT RightFoot
          {
            OFFSET 0 19.1625 0
            CHANNELS 3 Zrotation Xrotation Yrotation
            JOINT RightToeBase
            {
              OFFSET 0 16.0188 0
              CHANNELS 3 Zrotation Xrotation Yrotation
              End Site
              {
                OFFSET 0.00678979 7.75782 -0.894206
              }
            }
          }
        }
      }
    }
  }
  JOINT LeftUpLeg
  {
    OFFSET 7.06048 -1.2947 -1.0861
    CHANNELS 3 Zrotation Xrotation Yrotation
    JOINT LeftUpLegRoll
    {
      OFFSET 0 18.5309 0
      CHANNELS 3 Zrotation Xrotation Yrotation
      JOINT LeftLeg
      {
        OFFSET 0 22.9475 0
        CHANNELS 3 Zrotation Xrotation Yrotation
        JOINT LeftLegRoll
        {
          OFFSET 0 23.2355 0
          CHANNELS 3 Zrotation Xrotation Yrotation
          JOINT LeftFoot
          {
            OFFSET 0 18.9496 0
            CHANNELS 3 Zrotation Xrotation Yrotation
            JOINT LeftToeBase
            {
              OFFSET 0 16.0188 0
              CHANNELS 3 Zrotation Xrotation Yrotation
              End Site
              {
                OFFSET -0.0304289 7.75782 -0.894207
              }
            }
          }
        }
      }
    }
  }
}
MOTION
Frames: 4
Frame Time: 0.00208333
54.6148 97.0556 28.9747 0.208797 -4.0112 1.383 -0.193033 -1.45777 -0.0452186 -0.395904 1.08808 -0.0687411 -0.395162 2.73312 -0.0621692 -1.80363 10.4593 -0.952252 4.06073 19.8097 -1.73863 73.1991 -4.38066 -3.68126 101.193 22.9037 -6.50394 -6.6234e-007 -1.70037e-006 1.64963e-006 18.1825 13.682 -2.58176 -6.10937e-006 1.43861e-006 -2.99999 8.02917 -4.9514 0.69769 -60.9659 -5.12831 3.31066 -110.596 21.6919 8.78583 -1.29681e-005 1.89851e-006 8.23841e-008 -14.185 16.7225 2.82971 1.13167e-005 -5.26191e-006 3 -8.02888 -4.95145 -0.697711 175.025 -3.83852 3.85114 -180 7.01486e-015 178.685 179.265 6.06529 179.544 1.8555e-007 -5.90901e-006 0.0376802 -18.3638 67.2443 18.9419 8.1259 25.2332 -3.48322 -174.195 -1.74334 -2.33172 4.5067e-006 -1.99009e-005 -1.19926 -2.32611 -8.43803 0.0436092 -4.70884e-006 -3.51381e-006 -0.15951 19.992 69.3339 -20.7087 -8.13419 25.2328 3.48676 
54.62 97.0561 28.9682 0.203514 -4.00386 1.37424 -0.193033 -1.45829 -0.0455565 -0.395308 1.08699 -0.0702307 -0.394561 2.73203 -0.0636676 -1.78062 10.4628 -0.961582 4.04734 19.8029 -1.74122 73.2175 -4.3813 -3.68272 101.181 22.9217 -6.50517 -6.6234e-007 -1.70037e-006 1.64963e-006 18.1904 13.6449 -2.57463 -6.10937e-006 1.43861e-006 -2.99999 8.02917 -4.9514 0.69769 -60.9463 -5.12521 3.3076 -110.633 21.7202 8.81006 -1.29681e-005 1.89851e-006 8.23841e-008 -14.1876 16.6461 2.81711 1.13167e-005 -5.26191e-006 3 -8.02888 -4.95145 -0.697711 175.032 -3.819 3.8433 -180 7.01486e-015 178.685 179.268 6.0749 179.544 1.8555e-007 -5.90901e-006 0.0376802 -18.3668 67.2481 18.9452 8.1259 25.2332 -3.48322 -174.188 -1.7297 -2.33891 4.5067e-006 -1.99009e-005 -1.1993 -2.33062 -8.44599 0.0428169 -4.70884e-006 -3.51381e-006 -0.159508 19.992 69.3339 -20.7087 -8.13419 25.2328 3.48676 
54.6225 97.0556 28.9584 0.198377 -3.99675 1.36591 -0.193075 -1.45883 -0.0459028 -0.3948 1.08586 -0.0717851 -0.394047 2.7309 -0.0652294 -1.7577 10.4668 -0.971292 4.03428 19.7957 -1.74425 73.236 -4.38195 -3.6842 101.169 22.9394 -6.50704 -6.6234e-007 -1.70037e-006 1.64963e-006 18.1989 13.6089 -2.56773 -6.10937e-006 1.43861e-006 -2.99999 8.02917 -4.9514 0.69769 -60.9265 -5.12189 3.30441 -110.67 21.7487 8.83424 -1.29681e-005 1.89851e-006 8.23841e-008 -14.1899 16.5695 2.80446 1.13167e-005 -5.26191e-006 3 -8.02888 -4.95145 -0.697711 175.039 -3.80003 3.83607 -180 7.01486e-015 178.685 179.271 6.08431 179.544 1.8555e-007 -5.90901e-006 0.0376802 -18.3701 67.2522 18.9487 8.1259 25.2332 -3.48322 -174.18 -1.71643 -2.34599 4.5067e-006 -1.99009e-005 -1.19936 -2.33509 -8.45373 0.0420256 -4.70884e-006 -3.51381e-006 -0.159504 19.9918 69.3337 -20.7085 -8.13419 25.2328 3.48676 
54.6095 97.0581 28.9527 0.193343 -3.98982 1.35787 -0.193144 -1.45939 -0.046255 -0.394354 1.0847 -0.073385 -0.393594 2.72974 -0.0668356 -1.73484 10.4711 -0.981268 4.02145 19.7882 -1.74757 73.2546 -4.38262 -3.68568 101.156 22.9569 -6.50936 -6.6234e-007 -1.70037e-006 1.64963e-006 18.2079 13.5736 -2.56098 -6.10937e-006 1.43861e-006 -2.99999 8.02917 -4.9514 0.69769 -60.9066 -5.11843 3.30112 -110.707 21.7774 8.8584 -1.29681e-005 1.89851e-006 8.23841e-008 -14.1921 16.4927 2.79179 1.13167e-005 -5.26191e-006 3 -8.02888 -4.95145 -0.697711 175.046 -3.78146 3.82928 -180 7.01486e-015 178.685 179.274 6.09365 179.544 1.8555e-007 -5.90901e-006 0.0376802 -18.3735 67.2565 18.9524 8.1259 25.2332 -3.48322 -174.172 -1.70341 -2.35301 4.5067e-006 -1.99009e-005 -1.19943 -2.33953 -8.4613 0.0412349 -4.70884e-006 -3.51381e-006 -0.1595 19.9915 69.3334 -20.7082 -8.13419 25.2328 3.48676 
